<svg version="1.1" viewBox="0.0 0.0 552.5879265091863 420.83989501312334" fill="none" stroke="none" stroke-linecap="square" stroke-miterlimit="10" xmlns:xlink="http://www.w3.org/1999/xlink" xmlns="http://www.w3.org/2000/svg"><clipPath id="p.0"><path d="m0 0l552.58795 0l0 420.8399l-552.58795 0l0 -420.8399z" clip-rule="nonzero"/></clipPath><g clip-path="url(#p.0)"><path fill="#000000" fill-opacity="0.0" d="m0 0l552.58795 0l0 420.8399l-552.58795 0z" fill-rule="evenodd"/><defs><radialGradient id="p.1" gradientUnits="userSpaceOnUse" gradientTransform="matrix(17.571578633013257 0.0 0.0 17.571578633013257 0.0 0.0)" spreadMethod="pad" cx="15.72391240565578" cy="11.975016696065508" fx="15.72391240565578" fy="11.975016696065508" r="17.571578979492188"><stop offset="0.0" stop-color="#ffffff"/><stop offset="0.94" stop-color="#d9d9d9"/><stop offset="1.0" stop-color="#b3b3b3"/></radialGradient></defs><path fill="url(#p.1)" d="m8.971128 266.8726l323.6891 0l0 98.0513l-323.6891 0z" fill-rule="evenodd"/><defs><radialGradient id="p.2" gradientUnits="userSpaceOnUse" gradientTransform="matrix(17.571578633013257 0.0 0.0 17.571578633013257 0.0 0.0)" spreadMethod="pad" cx="15.72391240565578" cy="11.975016696065508" fx="15.72391240565578" fy="11.975016696065508" r="17.571578979492188"><stop offset="0.0" stop-color="#ffffff"/><stop offset="0.94" stop-color="#d9d9d9"/><stop offset="1.0" stop-color="#b3b3b3"/></radialGradient></defs><path fill="url(#p.2)" d="m332.66022 266.8726l210.9566 -210.95657l0 98.051285l-210.9566 210.95659z" fill-rule="evenodd"/><defs><radialGradient id="p.3" gradientUnits="userSpaceOnUse" gradientTransform="matrix(17.571578633013257 0.0 0.0 17.571578633013257 0.0 0.0)" spreadMethod="pad" cx="15.72391240565578" cy="11.975016696065508" fx="15.72391240565578" fy="11.975016696065508" r="17.571578979492188"><stop offset="0.0" stop-color="#ffffff"/><stop offset="0.94" stop-color="#d9d9d9"/><stop offset="1.0" stop-color="#b3b3b3"/></radialGradient></defs><path fill="url(#p.3)" d="m8.971128 266.8726l210.95659 -210.95657l323.6891 0l-210.9566 210.95657z" fill-rule="evenodd"/><path fill="#000000" fill-opacity="0.0" d="m8.971128 266.8726l210.95659 -210.95657l323.6891 0l0 98.051285l-210.9566 210.95659l-323.6891 0zm0 0l323.6891 0l210.9566 -210.95657m-210.9566 210.95657l0 98.0513" fill-rule="evenodd"/><path fill="#000000" fill-opacity="0.2" d="m332.66022 266.8726l210.9566 -210.95657l0 98.051285l-210.9566 210.95659z" fill-rule="evenodd"/><path fill="#ffffff" fill-opacity="0.2" d="m8.971128 266.8726l210.95659 -210.95657l323.6891 0l-210.9566 210.95657z" fill-rule="evenodd"/><path stroke="#000000" stroke-width="1.0" stroke-linejoin="round" stroke-linecap="butt" d="m8.971128 266.8726l210.95659 -210.95657l323.6891 0l0 98.051285l-210.9566 210.95659l-323.6891 0zm0 0l323.6891 0l210.9566 -210.95657m-210.9566 210.95657l0 98.0513" fill-rule="evenodd"/><defs><radialGradient id="p.4" gradientUnits="userSpaceOnUse" gradientTransform="matrix(16.95452050893852 0.0029963806465651993 -0.0029963806465651993 16.95452050893852 0.0 0.0)" spreadMethod="pad" cx="16.297867640045578" cy="9.534135977616069" fx="16.297867640045578" fy="9.534135977616069" r="16.95452117919922"><stop offset="0.0" stop-color="#ffc002"/><stop offset="1.0" stop-color="#795b04"/></radialGradient></defs><path fill="url(#p.4)" d="m8.971128 267.38058l212.1476 -211.42708l322.4981 0.05699539l-212.14761 211.42706z" fill-rule="evenodd"/><path stroke="#000000" stroke-width="1.0" stroke-linejoin="round" stroke-linecap="butt" d="m8.971128 267.38058l212.1476 -211.42708l322.4981 0.05699539l-212.14761 211.42706z" fill-rule="evenodd"/><defs><radialGradient id="p.5" gradientUnits="userSpaceOnUse" gradientTransform="matrix(16.464196126582088 0.003086650939250529 -0.003086650939250529 16.464196126582088 0.0 0.0)" spreadMethod="pad" cx="16.78333099302347" cy="9.748388295670038" fx="16.78333099302347" fy="9.748388295670038" r="16.464195251464844"><stop offset="0.0" stop-color="#db0000"/><stop offset="1.0" stop-color="#540303"/></radialGradient></defs><path fill="url(#p.5)" d="m24.293962 260.4252l200.488 -199.80493l303.51196 0.05690384l-200.48798 199.80492z" fill-rule="evenodd"/><path stroke="#000000" stroke-width="1.0" stroke-linejoin="round" stroke-linecap="butt" d="m24.293962 260.4252l200.488 -199.80493l303.51196 0.05690384l-200.48798 199.80492z" fill-rule="evenodd"/><defs><linearGradient id="p.6" gradientUnits="userSpaceOnUse" gradientTransform="matrix(5.535356992300968 11.938667157210272 -11.938667157210272 5.535356992300968 0.0 0.0)" spreadMethod="pad" x1="16.84018207497324" y1="-20.374362120096922" x2="16.840140003274836" y2="-8.43569496296078"><stop offset="0.0" stop-color="#4d4d4d"/><stop offset="1.0" stop-color="#000000"/></linearGradient></defs><path fill="url(#p.6)" d="m265.19315 121.312416l0 0c39.355713 -18.255836 78.04959 -18.41095 86.4252 -0.34645844l0 0c4.0220947 8.674881 0.37173462 20.477036 -10.14801 32.810135c-10.519745 12.333099 -27.04721 24.18689 -45.946472 32.953644l0 0c-39.355743 18.255844 -78.04962 18.41095 -86.42522 0.34646606l0 0c-8.375595 -18.064499 16.73877 -47.50795 56.094498 -65.76379z" fill-rule="evenodd"/></g></svg>